<svg width="14" height="14" viewBox="0 0 14 14" fill="none" xmlns="http://www.w3.org/2000/svg">
<path d="M13.3733 6.16L12.4667 5.10667C12.2933 4.90667 12.1533 4.53333 12.1533 4.26667V3.13333C12.1533 2.42667 11.5733 1.84666 10.8667 1.84666H9.73334C9.47334 1.84666 9.09334 1.70667 8.89334 1.53333L7.84 0.626665C7.38 0.233332 6.62667 0.233332 6.16 0.626665L5.11334 1.54C4.91334 1.70667 4.53334 1.84666 4.27334 1.84666H3.12C2.41334 1.84666 1.83334 2.42667 1.83334 3.13333V4.27333C1.83334 4.53333 1.69334 4.90667 1.52667 5.10667L0.62667 6.16667C0.240003 6.62667 0.240003 7.37333 0.62667 7.83333L1.52667 8.89333C1.69334 9.09333 1.83334 9.46667 1.83334 9.72667V10.8667C1.83334 11.5733 2.41334 12.1533 3.12 12.1533H4.27334C4.53334 12.1533 4.91334 12.2933 5.11334 12.4667L6.16667 13.3733C6.62667 13.7667 7.38 13.7667 7.84667 13.3733L8.9 12.4667C9.1 12.2933 9.47334 12.1533 9.74 12.1533H10.8733C11.58 12.1533 12.16 11.5733 12.16 10.8667V9.73333C12.16 9.47333 12.3 9.09333 12.4733 8.89333L13.38 7.84C13.7667 7.38 13.7667 6.62 13.3733 6.16ZM9.77334 5.74L6.55334 8.96C6.46 9.05333 6.33334 9.10666 6.2 9.10666C6.06667 9.10666 5.94 9.05333 5.84667 8.96L4.23334 7.34667C4.04 7.15333 4.04 6.83333 4.23334 6.64C4.42667 6.44666 4.74667 6.44666 4.94 6.64L6.2 7.9L9.06667 5.03333C9.26 4.84 9.58 4.84 9.77334 5.03333C9.96667 5.22667 9.96667 5.54666 9.77334 5.74Z" fill="#2ABAFF"/>
</svg>
